# Blender v2.93.0 OBJ File: 'teste.blend'
# www.blender.org
mtllib 3d.mtl
o Cube
v 0.500000 1.000000 -1.000000
v 0.500000 -1.000000 -1.000000
v 0.500000 1.000000 1.000000
v 0.500000 -1.000000 1.000000
v -0.500000 1.000000 -1.000000
v -0.500000 -1.000000 -1.000000
v -0.500000 1.000000 1.000000
v -0.500000 -1.000000 1.000000
v -0.500000 -1.000000 3.500000
v -0.500000 1.000000 3.500000
v 0.500000 1.000000 3.500000
v 0.500000 -1.000000 3.500000
v 0.500000 -1.000000 -3.500000
v -0.500000 -1.000000 -3.500000
v 0.500000 1.000000 -3.500000
v -0.500000 1.000000 -3.500000
v 0.500000 3.500000 1.000000
v -0.500000 3.500000 1.000000
v 0.500000 3.500000 3.500000
v -0.500000 3.500000 3.500000
v 0.500000 3.500000 1.000000
v -0.500000 3.500000 1.000000
v 0.500000 3.500000 -1.000000
v -0.500000 3.500000 -1.000000
v -0.500000 3.500000 -1.000000
v 0.500000 3.500000 -1.000000
v -0.500000 3.500000 -3.500000
v 0.500000 3.500000 -3.500000
vt 0.471002 0.605679
vt 0.265642 0.605679
vt 0.265642 0.862379
vt 0.471002 0.862379
vt 0.265642 0.400320
vt 0.265642 0.605679
vt 0.008943 0.605679
vt 0.008943 0.400320
vt 0.471002 0.605679
vt 0.471002 0.400320
vt 0.727702 0.400320
vt 0.727702 0.605679
vt 0.991112 0.397374
vt 0.991112 0.602734
vt 0.888432 0.602734
vt 0.888432 0.397374
vt 0.265642 0.400320
vt 0.008943 0.400320
vt 0.008943 0.605679
vt 0.985644 0.363291
vt 0.985644 0.260611
vt 0.728945 0.260611
vt 0.728945 0.363291
vt 0.265642 0.862379
vt 0.008943 0.862379
vt 0.755879 0.400320
vt 0.755879 0.605679
vt 0.858559 0.605679
vt 0.858559 0.400320
vt 0.471002 0.400320
vt 0.727702 0.605679
vt 0.727702 0.400320
vt 0.728945 0.260209
vt 0.728945 0.362889
vt 0.985644 0.362889
vt 0.985644 0.260209
vt 0.471002 0.862379
vt 0.727702 0.862379
vt 0.471002 0.986088
vt 0.471002 0.883408
vt 0.727702 0.883408
vt 0.727702 0.986088
vt 0.991112 0.859433
vt 0.888432 0.859433
vt 0.008943 0.862379
vt 0.265642 0.862379
vt 0.419662 0.605679
vt 0.316982 0.605679
vt 0.316982 0.862379
vt 0.419662 0.862379
vt 0.265642 0.986088
vt 0.265642 0.883408
vt 0.471002 0.883408
vt 0.471002 0.986088
vt 0.471002 0.862379
vt 0.265642 0.862379
vt 0.419662 0.605679
vt 0.316982 0.605679
vt 0.316982 0.862379
vt 0.419662 0.862379
vt 0.419662 0.862379
vt 0.316982 0.862379
vt 0.265642 0.883408
vt 0.265642 0.986088
vt 0.008943 0.986088
vt 0.008943 0.883408
vt 0.727702 0.862379
vt 0.471002 0.862379
vt 0.755879 0.862379
vt 0.858559 0.862379
vt 0.419662 0.862379
vt 0.316982 0.862379
vt 0.538123 0.265457
vt 0.332763 0.265457
vt 0.332763 0.368137
vt 0.538123 0.368137
vt 0.204413 0.265457
vt 0.204413 0.368137
vt 0.409773 0.368137
vt 0.409773 0.265457
vt 0.204413 0.265457
vt 0.409773 0.265457
vt 0.409773 0.368137
vt 0.204413 0.368137
vn -1.0000 0.0000 0.0000
vn 1.0000 0.0000 0.0000
vn 0.0000 0.0000 1.0000
vn 0.0000 -1.0000 0.0000
vn 0.0000 0.0000 -1.0000
vn 0.0000 1.0000 0.0000
usemtl Material
s off
f 5/1/1 7/2/1 22/3/1 24/4/1
f 4/5/2 3/6/2 11/7/2 12/8/2
f 1/9/2 2/10/2 13/11/2 15/12/2
f 12/13/3 11/14/3 10/15/3 9/16/3
f 7/2/1 8/17/1 9/18/1 10/19/1
f 8/20/4 4/21/4 12/22/4 9/23/4
f 11/7/2 3/6/2 17/24/2 19/25/2
f 14/26/5 16/27/5 15/28/5 13/29/5
f 6/30/1 5/1/1 16/31/1 14/32/1
f 2/33/4 6/34/4 14/35/4 13/36/4
f 16/31/1 5/1/1 25/37/1 27/38/1
f 17/39/6 18/40/6 20/41/6 19/42/6
f 10/15/3 11/14/3 19/43/3 20/44/3
f 7/2/1 10/19/1 20/45/1 18/46/1
f 3/47/5 7/48/5 18/49/5 17/50/5
f 23/51/6 24/52/6 22/53/6 21/54/6
f 3/6/2 1/9/2 23/55/2 21/56/2
f 1/57/5 5/58/5 24/59/5 23/60/5
f 7/48/3 3/47/3 21/61/3 22/62/3
f 25/63/6 26/64/6 28/65/6 27/66/6
f 1/9/2 15/12/2 28/67/2 26/68/2
f 15/28/5 16/27/5 27/69/5 28/70/5
f 5/58/3 1/57/3 26/71/3 25/72/3
f 1/73/4 3/74/4 7/75/4 5/76/4
f 4/77/5 8/78/5 7/79/5 3/80/5
f 2/81/3 1/82/3 5/83/3 6/84/3
